<svg xmlns="http://www.w3.org/2000/svg" width="286.5251770019531" height="265.91107177734375" viewBox="-54.003944396972656 -33.10102081298828 286.5251770019531 265.91107177734375"><title>Neo4j Graph Visualization</title><desc>Created using Neo4j (http://www.neo4j.com/)</desc><g class="layer relationships"><g class="relationship" transform="translate(155.49569273245913 194.62509419560178) rotate(234.4228214464107)"><path class="outline" fill="#A5ABB6" stroke="none" d="M 25 0.5 L 30.55049876998335 0.5 L 30.55049876998335 -0.5 L 25 -0.5 Z M 77.55049876998335 0.5 L 83.1009975399667 0.5 L 83.1009975399667 3.5 L 90.1009975399667 0 L 83.1009975399667 -3.5 L 83.1009975399667 -0.5 L 77.55049876998335 -0.5 Z"/><text text-anchor="middle" pointer-events="none" font-size="8px" fill="#000000" x="54.05049876998335" y="3" transform="rotate(180 54.05049876998335 0)" font-family="sans-serif">ACTED_IN</text></g><g class="relationship" transform="translate(203.52124275964798 101.73839354500672) rotate(180.36307314954922)"><path class="outline" fill="#A5ABB6" stroke="none" d="M 25 0.5 L 35.996755400530226 0.5 L 35.996755400530226 -0.5 L 25 -0.5 Z M 71.99675540053022 0.5 L 82.99351080106045 0.5 L 82.99351080106045 3.5 L 89.99351080106045 0 L 82.99351080106045 -3.5 L 82.99351080106045 -0.5 L 71.99675540053022 -0.5 Z"/><text text-anchor="middle" pointer-events="none" font-size="8px" fill="#000000" x="53.996755400530226" y="3" transform="rotate(180 53.996755400530226 0)" font-family="sans-serif">WROTE</text></g><g class="relationship" transform="translate(151.334185710559 4.932179286179581) rotate(483.1719208013602)"><path class="outline" fill="#A5ABB6" stroke="none" d="M 25 0.5 L 30.391749355572735 0.5 L 30.391749355572735 -0.5 L 25 -0.5 Z M 77.39174935557273 0.5 L 82.78349871114547 0.5 L 82.78349871114547 3.5 L 89.78349871114547 0 L 82.78349871114547 -3.5 L 82.78349871114547 -0.5 L 77.39174935557273 -0.5 Z"/><text text-anchor="middle" pointer-events="none" font-size="8px" fill="#000000" x="53.891749355572735" y="3" transform="rotate(180 53.891749355572735 0)" font-family="sans-serif">ACTED_IN</text></g><g class="relationship" transform="translate(42.24423890174359 -4.101020152152835) rotate(426.2335725629091)"><path class="outline" fill="#A5ABB6" stroke="none" d="M 25 0.5 L 29.92525576844792 0.5 L 29.92525576844792 -0.5 L 25 -0.5 Z M 77.92525576844793 0.5 L 82.85051153689584 0.5 L 82.85051153689584 3.5 L 89.85051153689584 0 L 82.85051153689584 -3.5 L 82.85051153689584 -0.5 L 77.92525576844793 -0.5 Z"/><text text-anchor="middle" pointer-events="none" font-size="8px" fill="#000000" x="53.92525576844792" y="3" font-family="sans-serif">DIRECTED</text></g><g class="relationship" transform="translate(-25.003946763819915 99.74245256436777) rotate(360.63950191550356)"><path class="outline" fill="#A5ABB6" stroke="none" d="M 25 0.5 L 29.77052987645645 0.5 L 29.77052987645645 -0.5 L 25 -0.5 Z M 76.77052987645645 0.5 L 81.5410597529129 0.5 L 81.5410597529129 3.5 L 88.5410597529129 0 L 81.5410597529129 -3.5 L 81.5410597529129 -0.5 L 76.77052987645645 -0.5 Z"/><text text-anchor="middle" pointer-events="none" font-size="8px" fill="#000000" x="53.27052987645645" y="3" font-family="sans-serif">ACTED_IN</text></g><g class="relationship" transform="translate(38.7540695141538 203.8100516289592) rotate(295.8362852575227)"><path class="outline" fill="#A5ABB6" stroke="none" d="M 25 0.5 L 35.608577670689975 0.5 L 35.608577670689975 -0.5 L 25 -0.5 Z M 71.60857767068998 0.5 L 82.21715534137995 0.5 L 82.21715534137995 3.5 L 89.21715534137995 0 L 82.21715534137995 -3.5 L 82.21715534137995 -0.5 L 71.60857767068998 -0.5 Z"/><text text-anchor="middle" pointer-events="none" font-size="8px" fill="#000000" x="53.608577670689975" y="3" font-family="sans-serif">WROTE</text></g></g><g class="layer nodes"><g class="node" transform="translate(88.53004075099103,101.00970502591282)"><circle class="outline" cx="0" cy="0" r="25" fill="#57C7E3" stroke="#23b3d7" stroke-width="2px"/><text text-anchor="middle" pointer-events="none" font-family="sans-serif" dy="1.5625" font-size="25" fill="#2A2C34"/><text text-anchor="middle" pointer-events="none" x="0" y="5" font-size="10px" fill="#2A2C34" font-family="sans-serif"> Captain</text></g><g class="node" transform="translate(155.49569273245913,194.62509419560178)"><circle class="outline" cx="0" cy="0" r="25" fill="#F79767" stroke="#f36924" stroke-width="2px"/><text text-anchor="middle" pointer-events="none" font-family="sans-serif" dy="1.5625" font-size="25" fill="#FFFFFF"/><text text-anchor="middle" pointer-events="none" font-family="sans-serif" dy="1.5625" font-size="25" fill="#FFFFFF"/><text text-anchor="middle" pointer-events="none" x="0" y="0" font-size="10px" fill="#FFFFFF" font-family="sans-serif"> Hugo</text><text text-anchor="middle" pointer-events="none" x="0" y="10" font-size="10px" fill="#FFFFFF" font-family="sans-serif"> Weavi…</text></g><g class="node" transform="translate(203.52124275964798,101.73839354500672)"><circle class="outline" cx="0" cy="0" r="25" fill="#F79767" stroke="#f36924" stroke-width="2px"/><text text-anchor="middle" pointer-events="none" font-family="sans-serif" dy="1.5625" font-size="25" fill="#FFFFFF"/><text text-anchor="middle" pointer-events="none" x="0" y="5" font-size="10px" fill="#FFFFFF" font-family="sans-serif"> Steph…</text></g><g class="node" transform="translate(151.334185710559,4.932179286179581)"><circle class="outline" cx="0" cy="0" r="25" fill="#F79767" stroke="#f36924" stroke-width="2px"/><text text-anchor="middle" pointer-events="none" font-family="sans-serif" dy="1.5625" font-size="25" fill="#FFFFFF"/><text text-anchor="middle" pointer-events="none" font-family="sans-serif" dy="1.5625" font-size="25" fill="#FFFFFF"/><text text-anchor="middle" pointer-events="none" x="0" y="0" font-size="10px" fill="#FFFFFF" font-family="sans-serif"> Chris</text><text text-anchor="middle" pointer-events="none" x="0" y="10" font-size="10px" fill="#FFFFFF" font-family="sans-serif"> Evans</text></g><g class="node" transform="translate(42.24423890174359,-4.101020152152835)"><circle class="outline" cx="0" cy="0" r="25" fill="#F79767" stroke="#f36924" stroke-width="2px"/><text text-anchor="middle" pointer-events="none" font-family="sans-serif" dy="1.5625" font-size="25" fill="#FFFFFF"/><text text-anchor="middle" pointer-events="none" font-family="sans-serif" dy="1.5625" font-size="25" fill="#FFFFFF"/><text text-anchor="middle" pointer-events="none" x="0" y="0" font-size="10px" fill="#FFFFFF" font-family="sans-serif"> Joe</text><text text-anchor="middle" pointer-events="none" x="0" y="10" font-size="10px" fill="#FFFFFF" font-family="sans-serif"> Johnst…</text></g><g class="node" transform="translate(-25.003946763819915,99.74245256436777)"><circle class="outline" cx="0" cy="0" r="25" fill="#F79767" stroke="#f36924" stroke-width="2px"/><text text-anchor="middle" pointer-events="none" font-family="sans-serif" dy="1.5625" font-size="25" fill="#FFFFFF"/><text text-anchor="middle" pointer-events="none" x="0" y="5" font-size="10px" fill="#FFFFFF" font-family="sans-serif"> Samuel</text></g><g class="node" transform="translate(38.7540695141538,203.8100516289592)"><circle class="outline" cx="0" cy="0" r="25" fill="#F79767" stroke="#f36924" stroke-width="2px"/><text text-anchor="middle" pointer-events="none" font-family="sans-serif" dy="1.5625" font-size="25" fill="#FFFFFF"/><text text-anchor="middle" pointer-events="none" x="0" y="5" font-size="10px" fill="#FFFFFF" font-family="sans-serif"> Christo…</text></g></g></svg>