<svg xmlns="http://www.w3.org/2000/svg" width="251.07760620117188" height="255.49859619140625" viewBox="-28.91080665588379 -20.74603843688965 251.07760620117188 255.49859619140625"><title>Neo4j Graph Visualization</title><desc>Created using Neo4j (http://www.neo4j.com/)</desc><g class="layer relationships"><g class="relationship" transform="translate(83.80534486121773 114.35477387168189) rotate(414.7563241503798)"><path class="outline" fill="#A5ABB6" stroke="none" d="M 25 0.5 L 28.955187311010746 0.5 L 28.955187311010746 -0.5 L 25 -0.5 Z M 75.95518731101075 0.5 L 79.9103746220215 0.5 L 79.9103746220215 3.5 L 86.9103746220215 0 L 79.9103746220215 -3.5 L 79.9103746220215 -0.5 L 75.95518731101075 -0.5 Z"/><text text-anchor="middle" pointer-events="none" font-size="8px" fill="#000000" x="52.45518731101075" y="3" font-family="sans-serif">ACTED_IN</text></g><g class="relationship" transform="translate(83.80534486121773 114.35477387168189) rotate(348.0185779284884)"><path class="outline" fill="#A5ABB6" stroke="none" d="M 25 0.5 L 28.898476537858876 0.5 L 28.898476537858876 -0.5 L 25 -0.5 Z M 75.89847653785887 0.5 L 79.79695307571775 0.5 L 79.79695307571775 3.5 L 86.79695307571775 0 L 79.79695307571775 -3.5 L 79.79695307571775 -0.5 L 75.89847653785887 -0.5 Z"/><text text-anchor="middle" pointer-events="none" font-size="8px" fill="#000000" x="52.398476537858876" y="3" font-family="sans-serif">ACTED_IN</text></g><g class="relationship" transform="translate(83.80534486121773 114.35477387168189) rotate(288.348543485145)"><path class="outline" fill="#A5ABB6" stroke="none" d="M 25 0.5 L 28.892005307692536 0.5 L 28.892005307692536 -0.5 L 25 -0.5 Z M 75.89200530769253 0.5 L 79.78401061538507 0.5 L 79.78401061538507 3.5 L 86.78401061538507 0 L 79.78401061538507 -3.5 L 79.78401061538507 -0.5 L 75.89200530769253 -0.5 Z"/><text text-anchor="middle" pointer-events="none" font-size="8px" fill="#000000" x="52.392005307692536" y="3" font-family="sans-serif">ACTED_IN</text></g><g class="relationship" transform="translate(83.80534486121773 114.35477387168189) rotate(221.56182313861655)"><path class="outline" fill="#A5ABB6" stroke="none" d="M 25 0.5 L 28.942022564432094 0.5 L 28.942022564432094 -0.5 L 25 -0.5 Z M 75.9420225644321 0.5 L 79.88404512886419 0.5 L 79.88404512886419 3.5 L 86.88404512886419 0 L 79.88404512886419 -3.5 L 79.88404512886419 -0.5 L 75.9420225644321 -0.5 Z"/><text text-anchor="middle" pointer-events="none" font-size="8px" fill="#000000" x="52.442022564432094" y="3" transform="rotate(180 52.442022564432094 0)" font-family="sans-serif">ACTED_IN</text></g><g class="relationship" transform="translate(83.80534486121773 114.35477387168189) rotate(498.117066513432)"><path class="outline" fill="#A5ABB6" stroke="none" d="M 25 0.5 L 27.75481055514622 0.5 L 27.75481055514622 -0.5 L 25 -0.5 Z M 74.75481055514622 0.5 L 77.50962111029244 0.5 L 77.50962111029244 3.5 L 84.50962111029244 0 L 77.50962111029244 -3.5 L 77.50962111029244 -0.5 L 74.75481055514622 -0.5 Z"/><text text-anchor="middle" pointer-events="none" font-size="8px" fill="#000000" x="51.25481055514622" y="3" transform="rotate(180 51.25481055514622 0)" font-family="sans-serif">ACTED_IN</text></g></g><g class="layer nodes"><g class="node" transform="translate(148.3837914464874,205.75256478959557)"><circle class="outline" cx="0" cy="0" r="25" fill="#57C7E3" stroke="#23b3d7" stroke-width="2px"/><text text-anchor="middle" pointer-events="none" font-family="sans-serif" dy="1.5625" font-size="25" fill="#2A2C34"/><text text-anchor="middle" pointer-events="none" font-family="sans-serif" dy="1.5625" font-size="25" fill="#2A2C34"/><text text-anchor="middle" pointer-events="none" x="0" y="0" font-size="10px" fill="#2A2C34" font-family="sans-serif"> Cloud</text><text text-anchor="middle" pointer-events="none" x="0" y="10" font-size="10px" fill="#2A2C34" font-family="sans-serif"> Atlas</text></g><g class="node" transform="translate(83.80534486121773,114.35477387168189)"><circle class="outline" cx="0" cy="0" r="25" fill="#F79767" stroke="#f36924" stroke-width="2px"/><text text-anchor="middle" pointer-events="none" font-family="sans-serif" dy="1.5625" font-size="25" fill="#FFFFFF"/><text text-anchor="middle" pointer-events="none" font-family="sans-serif" dy="1.5625" font-size="25" fill="#FFFFFF"/><text text-anchor="middle" pointer-events="none" x="0" y="0" font-size="10px" fill="#FFFFFF" font-family="sans-serif"> Hugo</text><text text-anchor="middle" pointer-events="none" x="0" y="10" font-size="10px" fill="#FFFFFF" font-family="sans-serif"> Weavi…</text></g><g class="node" transform="translate(193.16679727293814,91.14633912452048)"><circle class="outline" cx="0" cy="0" r="25" fill="#57C7E3" stroke="#23b3d7" stroke-width="2px"/><text text-anchor="middle" pointer-events="none" font-family="sans-serif" dy="1.5625" font-size="25" fill="#2A2C34"/><text text-anchor="middle" pointer-events="none" font-family="sans-serif" dy="1.5625" font-size="25" fill="#2A2C34"/><text text-anchor="middle" pointer-events="none" x="0" y="0" font-size="10px" fill="#2A2C34" font-family="sans-serif"> V for</text><text text-anchor="middle" pointer-events="none" x="0" y="10" font-size="10px" fill="#2A2C34" font-family="sans-serif"> Vende…</text></g><g class="node" transform="translate(118.99458675000707,8.253961977743977)"><circle class="outline" cx="0" cy="0" r="25" fill="#57C7E3" stroke="#23b3d7" stroke-width="2px"/><text text-anchor="middle" pointer-events="none" font-family="sans-serif" dy="1.5625" font-size="25" fill="#2A2C34"/><text text-anchor="middle" pointer-events="none" font-family="sans-serif" dy="1.5625" font-size="25" fill="#2A2C34"/><text text-anchor="middle" pointer-events="none" font-family="sans-serif" dy="1.5625" font-size="25" fill="#2A2C34"/><text text-anchor="middle" pointer-events="none" x="0" y="-5" font-size="10px" fill="#2A2C34" font-family="sans-serif"> The</text><text text-anchor="middle" pointer-events="none" x="0" y="5" font-size="10px" fill="#2A2C34" font-family="sans-serif"> Matrix</text><text text-anchor="middle" pointer-events="none" x="0" y="15" font-size="10px" fill="#2A2C34" font-family="sans-serif"> Revol…</text></g><g class="node" transform="translate(0.08919265039079126,40.127788122485704)"><circle class="outline" cx="0" cy="0" r="25" fill="#57C7E3" stroke="#23b3d7" stroke-width="2px"/><text text-anchor="middle" pointer-events="none" font-family="sans-serif" dy="1.5625" font-size="25" fill="#2A2C34"/><text text-anchor="middle" pointer-events="none" font-family="sans-serif" dy="1.5625" font-size="25" fill="#2A2C34"/><text text-anchor="middle" pointer-events="none" font-family="sans-serif" dy="1.5625" font-size="25" fill="#2A2C34"/><text text-anchor="middle" pointer-events="none" x="0" y="-5" font-size="10px" fill="#2A2C34" font-family="sans-serif"> The</text><text text-anchor="middle" pointer-events="none" x="0" y="5" font-size="10px" fill="#2A2C34" font-family="sans-serif"> Matrix</text><text text-anchor="middle" pointer-events="none" x="0" y="15" font-size="10px" fill="#2A2C34" font-family="sans-serif"> Relo…</text></g><g class="node" transform="translate(2.2742888405519976,187.46458183118125)"><circle class="outline" cx="0" cy="0" r="25" fill="#57C7E3" stroke="#23b3d7" stroke-width="2px"/><text text-anchor="middle" pointer-events="none" font-family="sans-serif" dy="1.5625" font-size="25" fill="#2A2C34"/><text text-anchor="middle" pointer-events="none" font-family="sans-serif" dy="1.5625" font-size="25" fill="#2A2C34"/><text text-anchor="middle" pointer-events="none" x="0" y="0" font-size="10px" fill="#2A2C34" font-family="sans-serif"> The</text><text text-anchor="middle" pointer-events="none" x="0" y="10" font-size="10px" fill="#2A2C34" font-family="sans-serif"> Matrix</text></g></g></svg>