<svg xmlns="http://www.w3.org/2000/svg" width="184.37460327148438" height="206.58575439453125" viewBox="-12.1484375 -12.79296875 184.37460327148438 206.58575439453125"><title>Neo4j Graph Visualization</title><desc>Created using Neo4j (http://www.neo4j.com/)</desc><g class="layer relationships"><g class="relationship" transform="translate(69.93611997635783 164.79278447098042) rotate(252.989517837476)"><path class="outline" fill="#A5ABB6" stroke="none" d="M 5.987513214418485,24.277555179777966 L 6.953439040707552,24.018736134675446 A 45.873001032305666 45.873001032305666 0 0 0 33.995572922214976,54.64482285225753 L 33.61914709097666,55.57126960926872 A 46.873001032305666 46.873001032305666 0 0 1 5.987513214418485,24.277555179777966 Z M 63.35845925390881,57.431542208417376 L 63.10041936910656,56.465407943498036 A 45.873001032305666 45.873001032305666 0 0 0 93.74830719993027,29.447984602115586 L 90.96987866179208,28.316465773964996 L 96.85158922197135,23.153571151151574 L 97.45287858411453,30.956676372983036 L 94.67445004597634,29.825157544832447 A 46.873001032305666 46.873001032305666 0 0 1 63.35845925390881,57.431542208417376"/><text text-anchor="middle" pointer-events="none" font-size="8px" fill="#000000" x="48.368260136775824" y="61.428471312271746" transform="rotate(180 48.368260136775824 58.428471312271746)" font-family="sans-serif">CONN</text></g><g class="relationship" transform="translate(38.84399454399157 63.16152865097774) rotate(349.1498890499157)"><path class="outline" fill="#A5ABB6" stroke="none" d="M 5.987513214418485,-24.277555179777966 L 6.953439040707552,-24.018736134675446 A 45.873680420434205 45.873680420434205 0 0 1 33.99620587659847,-54.645370878997724 L 33.619785112646724,-55.5718196948888 A 46.873680420434205 46.873680420434205 0 0 0 5.987513214418485,-24.277555179777966 Z M 63.35910928960371,-57.432071228728724 L 63.10107327716815,-56.465935929566974 A 45.873680420434205 45.873680420434205 0 0 1 93.7496179359453,-29.448002918297327 L 90.97118774411246,-28.31648815077917 L 96.85289075879315,-23.15358493194037 L 97.45419152505576,-30.956689274988204 L 94.67576133322292,-29.825174507470045 A 46.873680420434205 46.873680420434205 0 0 0 63.35910928960371,-57.432071228728724"/><text text-anchor="middle" pointer-events="none" font-size="8px" fill="#000000" x="48.368907781804275" y="-55.42897565212293" font-family="sans-serif">CONN</text></g><g class="relationship" transform="translate(69.93611997635783 164.79278447098042) rotate(252.989517837476)"><path class="outline" fill="#A5ABB6" stroke="none" d="M 17.324116139070416,18.031222920256962 L 18.031222920256962,17.324116139070416 A 46.99733255446252 46.99733255446252 0 0 0 34.69519149375329,28.072038273586394 L 34.342657358879926,29.007837228356635 A 47.99733255446252 47.99733255446252 0 0 1 17.324116139070416,18.031222920256962 Z M 64.12757508101083,30.33326153804419 L 63.859555611403486,29.369848042232867 A 46.99733255446252 46.99733255446252 0 0 0 81.41232874660227,20.144565710925338 L 79.48781697280313,17.84320645333245 L 87.10291897661887,16.037598114992825 L 83.97834444500111,23.213044721049187 L 82.05383267120197,20.911685463456298 A 47.99733255446252 47.99733255446252 0 0 1 64.12757508101083,30.33326153804419"/><text text-anchor="middle" pointer-events="none" font-size="8px" fill="#000000" x="49.151821025502976" y="34.542357901410334" transform="rotate(180 49.151821025502976 31.542357901410334)" font-family="sans-serif">CONN</text></g><g class="relationship" transform="translate(69.93611997635783 164.79278447098042) rotate(252.989517837476)"><path class="outline" fill="#A5ABB6" stroke="none" d="M 24.018736134675446,6.953439040707552 L 24.277555179777966,5.987513214418485 A 104.26512576278691 104.26512576278691 0 0 0 34.734058638978254,8.221717707594365 L 34.575527234471785,9.209071643012265 A 105.26512576278691 105.26512576278691 0 0 1 24.018736134675446,6.953439040707552 Z M 64.61196469894509,9.690466389880157 L 64.48515528191338,8.698539289861174 A 104.26512576278691 104.26512576278691 0 0 0 75.0078852033462,6.800569503437625 L 74.32468850946304,3.8793981155407917 L 81.93781789075268,5.69330578235971 L 75.91881412852376,10.69546468730007 L 75.2356174346406,7.7742932994032365 A 105.26512576278691 105.26512576278691 0 0 1 64.61196469894509,9.690466389880157"/><text text-anchor="middle" pointer-events="none" font-size="8px" fill="#000000" x="49.58449773963045" y="13.02680853773822" transform="rotate(180 49.58449773963045 10.02680853773822)" font-family="sans-serif">CONN</text></g><g class="relationship" transform="translate(38.84399454399157 63.16152865097774) rotate(349.1498890499157)"><path class="outline" fill="#A5ABB6" stroke="none" d="M 10.396609043987748,-22.74116356711926 L 11.29757791189017,-22.307279828001697 A 44.359394888852954 44.359394888852954 0 0 1 34.31683138808056,-44.05495926877063 L 33.93478874840708,-44.9791039660293 A 45.359394888852954 45.359394888852954 0 0 0 10.396609043987748,-22.74116356711926 Z M 63.65762185990695,-46.69385439698398 L 63.38439047786274,-45.731906055405176 A 44.359394888852954 44.359394888852954 0 0 1 88.75190472156233,-26.775724668974924 L 86.21662038485604,-25.171875133622013 L 92.91676769350352,-21.127369472552402 L 92.13228383717072,-28.91419071611214 L 89.59699950046443,-27.31034118075923 A 45.359394888852954 45.359394888852954 0 0 0 63.65762185990695,-46.69385439698398"/><text text-anchor="middle" pointer-events="none" font-size="8px" fill="#000000" x="48.68030864700368" y="-44.84538784632704" font-family="sans-serif">CONN</text></g><g class="relationship" transform="translate(38.84399454399157 63.16152865097774) rotate(432.989517837476)"><path class="outline" fill="#A5ABB6" stroke="none" d="M 24.018736134675446,6.953439040707552 L 24.277555179777966,5.987513214418485 A 104.26512576278691 104.26512576278691 0 0 0 34.734058638978254,8.221717707594365 L 34.575527234471785,9.209071643012265 A 105.26512576278691 105.26512576278691 0 0 1 24.018736134675446,6.953439040707552 Z M 64.61196469894509,9.690466389880157 L 64.48515528191338,8.698539289861174 A 104.26512576278691 104.26512576278691 0 0 0 75.0078852033462,6.800569503437625 L 74.32468850946304,3.8793981155407917 L 81.93781789075268,5.69330578235971 L 75.91881412852376,10.69546468730007 L 75.2356174346406,7.7742932994032365 A 105.26512576278691 105.26512576278691 0 0 1 64.61196469894509,9.690466389880157"/><text text-anchor="middle" pointer-events="none" font-size="8px" fill="#000000" x="49.58449773963045" y="13.02680853773822" font-family="sans-serif">CONN</text></g><g class="relationship" transform="translate(38.84399454399157 63.16152865097774) rotate(349.1498890499157)"><path class="outline" fill="#A5ABB6" stroke="none" d="M 14.44320574945421,-20.411854586953456 L 15.247803529220876,-19.818034401379958 A 44.76299721701956 44.76299721701956 0 0 1 34.56283314149609,-34.76753313249965 L 34.189730811389154,-35.69532333037241 A 45.76299721701956 45.76299721701956 0 0 0 14.44320574945421,-20.411854586953456 Z M 63.93033406073504,-37.21204008831292 L 63.65355318698825,-36.25110702720619 A 44.76299721701956 44.76299721701956 0 0 1 84.38921294973737,-23.344120723722124 L 82.16917385695251,-21.326343127824348 L 89.46736718896298,-18.500325773207095 L 87.34926507345051,-26.034490851585826 L 85.12922598066565,-24.01671325568805 A 45.76299721701956 45.76299721701956 0 0 0 63.93033406073504,-37.21204008831292"/><text text-anchor="middle" pointer-events="none" font-size="8px" fill="#000000" x="48.95867697112841" y="-35.44111453354297" font-family="sans-serif">CONN</text></g><g class="relationship" transform="translate(38.84399454399157 63.16152865097774) rotate(349.1498890499157)"><path class="outline" fill="#A5ABB6" stroke="none" d="M 17.9862104268602,-17.370844380187897 L 18.666383164631117,-16.637792508358068 A 47.92551469783262 47.92551469783262 0 0 1 34.7196397933501,-26.485218574922143 L 34.374429689364824,-27.423744005641254 A 48.92551469783262 48.92551469783262 0 0 0 17.9862104268602,-17.370844380187897 Z M 64.17461366024835,-28.697241862812305 L 63.9107308572927,-27.73268711252372 A 47.92551469783262 47.92551469783262 0 0 1 80.74557673252352,-19.290719754071112 L 78.90011517331023,-16.925498488847484 L 86.5720032779142,-15.378846326777385 L 83.2061921448079,-22.44434810770262 L 81.36073058559461,-20.079126842478992 A 48.92551469783262 48.92551469783262 0 0 0 64.17461366024835,-28.697241862812305"/><text text-anchor="middle" pointer-events="none" font-size="8px" fill="#000000" x="49.19645553680403" y="-26.887261044807182" font-family="sans-serif">CONN</text></g><g class="relationship" transform="translate(38.84399454399157 63.16152865097774) rotate(349.1498890499157)"><path class="outline" fill="#A5ABB6" stroke="none" d="M 20.90208894244944,-13.724164012497553 L 21.434121018964774,-12.87743981326927 A 56.06784252962556 56.06784252962556 0 0 1 34.78344065657644,-18.994426403143294 L 34.48950084534771,-19.95025033430155 A 57.06784252962556 57.06784252962556 0 0 0 20.90208894244944,-13.724164012497553 Z M 64.38477389057377,-20.942474321986076 L 64.15485872989416,-19.969263646495065 A 56.06784252962556 56.06784252962556 0 0 1 77.88039887536443,-14.750891539898337 L 76.45624631471092,-12.110476897463547 L 84.27872513448787,-11.86793800544594 L 79.77926895623578,-18.27144439647806 L 78.35511639558227,-15.631029754043269 A 57.06784252962556 57.06784252962556 0 0 0 64.38477389057377,-20.942474321986076"/><text text-anchor="middle" pointer-events="none" font-size="8px" fill="#000000" x="49.387558491386415" y="-18.940152108336356" font-family="sans-serif">CONN</text></g><g class="relationship" transform="translate(38.84399454399157 63.16152865097774) rotate(432.989517837476)"><path class="outline" fill="#A5ABB6" stroke="none" d="M 17.324116139070416,18.031222920256962 L 18.031222920256962,17.324116139070416 A 46.99733255446252 46.99733255446252 0 0 0 34.69519149375329,28.072038273586394 L 34.342657358879926,29.007837228356635 A 47.99733255446252 47.99733255446252 0 0 1 17.324116139070416,18.031222920256962 Z M 64.12757508101083,30.33326153804419 L 63.859555611403486,29.369848042232867 A 46.99733255446252 46.99733255446252 0 0 0 81.41232874660227,20.144565710925338 L 79.48781697280313,17.84320645333245 L 87.10291897661887,16.037598114992825 L 83.97834444500111,23.213044721049187 L 82.05383267120197,20.911685463456298 A 47.99733255446252 47.99733255446252 0 0 1 64.12757508101083,30.33326153804419"/><text text-anchor="middle" pointer-events="none" font-size="8px" fill="#000000" x="49.151821025502976" y="34.542357901410334" font-family="sans-serif">CONN</text></g><g class="relationship" transform="translate(38.84399454399157 63.16152865097774) rotate(349.1498890499157)"><path class="outline" fill="#A5ABB6" stroke="none" d="M 23.08917320392191,-9.598962483481976 L 23.454514228288303,-8.668088734837774 A 76.11928478516099 76.11928478516099 0 0 1 34.768321769611774,-12.121059441562338 L 34.5516133496275,-13.097295816989899 A 77.11928478516099 77.11928478516099 0 0 0 23.08917320392191,-9.598962483481976 Z M 64.54716127856572,-13.777361311525539 L 64.37491967116709,-12.792306577675319 A 76.11928478516099 76.11928478516099 0 0 1 75.83359447372507,-9.855638473713164 L 74.8652623551036,-7.016213724217933 L 82.62030757565086,-8.069434321845602 L 77.12470396522036,-13.641538139706803 L 76.15637184659889,-10.802113390211574 A 77.11928478516099 77.11928478516099 0 0 0 64.54716127856572,-13.777361311525539"/><text text-anchor="middle" pointer-events="none" font-size="8px" fill="#000000" x="49.527329147274585" y="-11.410244857542594" font-family="sans-serif">CONN</text></g><g class="relationship" transform="translate(38.84399454399157 63.16152865097774) rotate(349.1498890499157)"><path class="outline" fill="#A5ABB6" stroke="none" d="M 24.471206027250748,-5.139073415689509 L 24.657117634413662,-4.15650694245622 A 143.115830567841 143.115830567841 0 0 1 34.70757853429787,-5.690624808614018 L 34.59189298710336,-6.683910696045388 A 144.115830567841 144.115830567841 0 0 0 24.471206027250748,-5.139073415689509 Z M 64.639647170817,-7.029470377210572 L 64.54683546919908,-6.0337866985039454 A 143.115830567841 143.115830567841 0 0 1 74.6299193297644,-4.731211638028346 L 74.14012220114518,-1.7714652345680157 L 81.61762712594171,-4.081642738493542 L 75.28298216792336,-8.677540175975453 L 74.79318503930413,-5.717793772515123 A 144.115830567841 144.115830567841 0 0 0 64.639647170817,-7.029470377210572"/><text text-anchor="middle" pointer-events="none" font-size="8px" fill="#000000" x="49.61248864005762" y="-4.1420243729726" font-family="sans-serif">CONN</text></g><g class="relationship" transform="translate(38.84399454399157 63.16152865097774) rotate(349.1498890499157)"><path class="outline" fill="#A5ABB6" stroke="none" d="M 25 0.5 L 34.641090244055555 0.5 L 34.641090244055555 -0.5 L 25 -0.5 Z M 64.64109024405556 0.5 L 74.28218048811111 0.5 L 74.28218048811111 3.5 L 81.28218048811111 0 L 74.28218048811111 -3.5 L 74.28218048811111 -0.5 L 64.64109024405556 -0.5 Z"/><text text-anchor="middle" pointer-events="none" font-size="8px" fill="#000000" x="49.641090244055555" y="3" font-family="sans-serif">CONN</text></g><g class="relationship" transform="translate(38.84399454399157 63.16152865097774) rotate(349.1498890499157)"><path class="outline" fill="#A5ABB6" stroke="none" d="M 24.471206027250748,5.139073415689509 L 24.657117634413662,4.15650694245622 A 143.115830567841 143.115830567841 0 0 0 34.707578534297866,5.690624808614018 L 34.59189298710335,6.683910696045388 A 144.115830567841 144.115830567841 0 0 1 24.471206027250748,5.139073415689509 Z M 64.63964717081703,7.029470377210572 L 64.54683546919911,6.0337866985039454 A 143.115830567841 143.115830567841 0 0 0 74.6299193297644,4.731211638028346 L 74.14012220114518,1.7714652345680157 L 81.61762712594171,4.081642738493542 L 75.28298216792336,8.677540175975453 L 74.79318503930413,5.717793772515123 A 144.115830567841 144.115830567841 0 0 1 64.63964717081703,7.029470377210572"/><text text-anchor="middle" pointer-events="none" font-size="8px" fill="#000000" x="49.612488640057634" y="10.1420243729726" font-family="sans-serif">CONN</text></g><g class="relationship" transform="translate(38.84399454399157 63.16152865097774) rotate(349.1498890499157)"><path class="outline" fill="#A5ABB6" stroke="none" d="M 23.08917320392191,9.598962483481976 L 23.454514228288303,8.668088734837774 A 76.11928478516099 76.11928478516099 0 0 0 34.768321769611774,12.121059441562352 L 34.551613349627516,13.097295816989899 A 77.11928478516099 77.11928478516099 0 0 1 23.08917320392191,9.598962483481976 Z M 64.54716127856575,13.777361311525539 L 64.3749196711671,12.792306577675305 A 76.11928478516099 76.11928478516099 0 0 0 75.83359447372507,9.855638473713164 L 74.8652623551036,7.016213724217933 L 82.62030757565086,8.069434321845602 L 77.12470396522036,13.641538139706803 L 76.15637184659889,10.802113390211574 A 77.11928478516099 77.11928478516099 0 0 1 64.54716127856575,13.777361311525539"/><text text-anchor="middle" pointer-events="none" font-size="8px" fill="#000000" x="49.52732914727461" y="17.410244857542594" font-family="sans-serif">CONN</text></g><g class="relationship" transform="translate(38.84399454399157 63.16152865097774) rotate(349.1498890499157)"><path class="outline" fill="#A5ABB6" stroke="none" d="M 20.90208894244944,13.724164012497553 L 21.434121018964774,12.87743981326927 A 56.06784252962556 56.06784252962556 0 0 0 34.78344065657643,18.994426403143287 L 34.489500845347706,19.950250334301543 A 57.06784252962556 57.06784252962556 0 0 1 20.90208894244944,13.724164012497553 Z M 64.38477389057378,20.94247432198607 L 64.15485872989417,19.969263646495058 A 56.06784252962556 56.06784252962556 0 0 0 77.88039887536443,14.750891539898337 L 76.45624631471092,12.110476897463547 L 84.27872513448787,11.86793800544594 L 79.77926895623578,18.27144439647806 L 78.35511639558227,15.631029754043269 A 57.06784252962556 57.06784252962556 0 0 1 64.38477389057378,20.94247432198607"/><text text-anchor="middle" pointer-events="none" font-size="8px" fill="#000000" x="49.38755849138642" y="24.940152108336356" font-family="sans-serif">CONN</text></g><g class="relationship" transform="translate(38.84399454399157 63.16152865097774) rotate(349.1498890499157)"><path class="outline" fill="#A5ABB6" stroke="none" d="M 17.9862104268602,17.370844380187897 L 18.666383164631117,16.637792508358068 A 47.92551469783262 47.92551469783262 0 0 0 34.7196397933501,26.48521857492215 L 34.37442968936483,27.423744005641254 A 48.92551469783262 48.92551469783262 0 0 1 17.9862104268602,17.370844380187897 Z M 64.17461366024837,28.697241862812298 L 63.91073085729271,27.73268711252372 A 47.92551469783262 47.92551469783262 0 0 0 80.74557673252352,19.290719754071112 L 78.90011517331023,16.925498488847484 L 86.5720032779142,15.378846326777385 L 83.2061921448079,22.44434810770262 L 81.36073058559461,20.079126842478992 A 48.92551469783262 48.92551469783262 0 0 1 64.17461366024837,28.697241862812298"/><text text-anchor="middle" pointer-events="none" font-size="8px" fill="#000000" x="49.196455536804045" y="32.88726104480718" font-family="sans-serif">CONN</text></g><g class="relationship" transform="translate(38.84399454399157 63.16152865097774) rotate(349.1498890499157)"><path class="outline" fill="#A5ABB6" stroke="none" d="M 14.44320574945421,20.411854586953456 L 15.247803529220876,19.818034401379958 A 44.76299721701956 44.76299721701956 0 0 0 34.5628331414961,34.76753313249965 L 34.18973081138917,35.69532333037241 A 45.76299721701956 45.76299721701956 0 0 1 14.44320574945421,20.411854586953456 Z M 63.93033406073506,37.21204008831292 L 63.65355318698827,36.25110702720618 A 44.76299721701956 44.76299721701956 0 0 0 84.38921294973737,23.344120723722124 L 82.16917385695251,21.326343127824348 L 89.46736718896298,18.500325773207095 L 87.34926507345051,26.034490851585826 L 85.12922598066565,24.01671325568805 A 45.76299721701956 45.76299721701956 0 0 1 63.93033406073506,37.21204008831292"/><text text-anchor="middle" pointer-events="none" font-size="8px" fill="#000000" x="48.95867697112843" y="41.44111453354298" font-family="sans-serif">CONN</text></g><g class="relationship" transform="translate(38.84399454399157 63.16152865097774) rotate(349.1498890499157)"><path class="outline" fill="#A5ABB6" stroke="none" d="M 10.396609043987748,22.74116356711926 L 11.29757791189017,22.307279828001697 A 44.359394888852954 44.359394888852954 0 0 0 34.31683138808058,44.054959268770645 L 33.9347887484071,44.979103966029314 A 45.359394888852954 45.359394888852954 0 0 1 10.396609043987748,22.74116356711926 Z M 63.65762185990695,46.69385439698398 L 63.38439047786274,45.731906055405176 A 44.359394888852954 44.359394888852954 0 0 0 88.75190472156233,26.775724668974924 L 86.21662038485604,25.171875133622013 L 92.91676769350352,21.127369472552402 L 92.13228383717072,28.91419071611214 L 89.59699950046443,27.31034118075923 A 45.359394888852954 45.359394888852954 0 0 1 63.65762185990695,46.69385439698398"/><text text-anchor="middle" pointer-events="none" font-size="8px" fill="#000000" x="48.68030864700369" y="50.84538784632704" font-family="sans-serif">CONN</text></g><g class="relationship" transform="translate(38.84399454399157 63.16152865097774) rotate(432.989517837476)"><path class="outline" fill="#A5ABB6" stroke="none" d="M 5.987513214418485,24.277555179777966 L 6.953439040707552,24.018736134675446 A 45.873001032305666 45.873001032305666 0 0 0 33.995572922214976,54.64482285225753 L 33.61914709097666,55.57126960926872 A 46.873001032305666 46.873001032305666 0 0 1 5.987513214418485,24.277555179777966 Z M 63.35845925390881,57.431542208417376 L 63.10041936910656,56.465407943498036 A 45.873001032305666 45.873001032305666 0 0 0 93.74830719993027,29.447984602115586 L 90.96987866179208,28.316465773964996 L 96.85158922197135,23.153571151151574 L 97.45287858411453,30.956676372983036 L 94.67445004597634,29.825157544832447 A 46.873001032305666 46.873001032305666 0 0 1 63.35845925390881,57.431542208417376"/><text text-anchor="middle" pointer-events="none" font-size="8px" fill="#000000" x="48.368260136775824" y="61.428471312271746" font-family="sans-serif">CONN</text></g><g class="relationship" transform="translate(38.84399454399157 63.16152865097774) rotate(349.1498890499157)"><path class="outline" fill="#A5ABB6" stroke="none" d="M 5.987513214418485,24.277555179777966 L 6.953439040707552,24.018736134675446 A 45.873680420434205 45.873680420434205 0 0 0 33.99620587659847,54.645370878997724 L 33.619785112646724,55.5718196948888 A 46.873680420434205 46.873680420434205 0 0 1 5.987513214418485,24.277555179777966 Z M 63.35910928960371,57.432071228728724 L 63.10107327716815,56.465935929566974 A 45.873680420434205 45.873680420434205 0 0 0 93.7496179359453,29.448002918297327 L 90.97118774411246,28.31648815077917 L 96.85289075879315,23.15358493194037 L 97.45419152505576,30.956689274988204 L 94.67576133322292,29.825174507470045 A 46.873680420434205 46.873680420434205 0 0 1 63.35910928960371,57.432071228728724"/><text text-anchor="middle" pointer-events="none" font-size="8px" fill="#000000" x="48.368907781804275" y="61.42897565212293" font-family="sans-serif">CONN</text></g></g><g class="layer nodes"><g class="node" transform="translate(69.93611997635783,164.79278447098042)"><circle class="outline" cx="0" cy="0" r="25" fill="#4C8EDA" stroke="#2870c2" stroke-width="2px"/><text text-anchor="middle" pointer-events="none" font-family="sans-serif" dy="1.5625" font-size="25" fill="#FFFFFF"/><text text-anchor="middle" pointer-events="none" x="0" y="5" font-size="10px" fill="#FFFFFF" font-family="sans-serif"> MSN</text></g><g class="node" transform="translate(143.226167552225,43.15493355369424)"><circle class="outline" cx="0" cy="0" r="25" fill="#4C8EDA" stroke="#2870c2" stroke-width="2px"/><text text-anchor="middle" pointer-events="none" font-family="sans-serif" dy="1.5625" font-size="25" fill="#FFFFFF"/><text text-anchor="middle" pointer-events="none" x="0" y="5" font-size="10px" fill="#FFFFFF" font-family="sans-serif"> GRR</text></g><g class="node" transform="translate(38.84399454399157,63.16152865097774)"><circle class="outline" cx="0" cy="0" r="25" fill="#4C8EDA" stroke="#2870c2" stroke-width="2px"/><text text-anchor="middle" pointer-events="none" font-family="sans-serif" dy="1.5625" font-size="25" fill="#FFFFFF"/><text text-anchor="middle" pointer-events="none" x="0" y="5" font-size="10px" fill="#FFFFFF" font-family="sans-serif"> ORD</text></g></g></svg>